<svg width="72" height="72" viewBox="0 0 72 72" fill="none" xmlns="http://www.w3.org/2000/svg">
<path d="M57 42C59.7614 42 62 44.2386 62 47C62 49.7614 59.7614 52 57 52H15C12.2386 52 10 49.7614 10 47C10 44.2386 12.2386 42 15 42H17.2L17.6 44H15C13.4023 44 12.0963 45.2489 12.0051 46.8237L12 47C12 48.6569 13.3431 50 15 50H57C58.6569 50 60 48.6569 60 47C60 45.3431 58.6569 44 57 44H54.6L55.2 42H57Z" fill="#202020"/>
<path d="M57 38C61.9706 38 66 42.0294 66 47C66 51.9706 61.9706 56 57 56H15C10.0294 56 6 51.9706 6 47C6 42.0294 10.0294 38 15 38H16.4L16.8 40H15C11.2145 40 8.1309 43.0048 8.00406 46.7593L8 47C8 50.866 11.134 54 15 54H57C60.866 54 64 50.866 64 47C64 43.134 60.866 40 57 40H55.8L56.4 38H57Z" fill="#202020"/>
<path d="M50.1992 45.3513C49.7482 46.0347 49.2493 46.6835 48.7072 47.2931L50.1241 48.7089C50.7862 47.9736 51.3917 47.1863 51.9337 46.3539L50.1992 45.3513ZM21.8008 45.3513L20.0663 46.3539C20.6083 47.1863 21.2138 47.9736 21.8759 48.7089L23.2928 47.2931C22.7507 46.6835 22.2518 46.0347 21.8008 45.3513ZM52.1381 41.3589C51.8791 42.1394 51.565 42.8949 51.2004 43.6206L52.9351 44.6229C53.383 43.745 53.7647 42.8277 54.0735 41.8775L52.1381 41.3589ZM19.8622 41.3599L17.9269 41.8785C18.2356 42.8283 18.6171 43.7453 19.0649 44.6229L20.7996 43.6206C20.4352 42.8952 20.1212 42.1401 19.8622 41.3599ZM54.9741 37.0001L52.971 37.0007C52.9231 37.8268 52.8161 38.6371 52.6544 39.4273L54.5895 39.9467C54.7918 38.9891 54.922 38.0049 54.9741 37.0001ZM19.029 37.0007L17.0259 37.0001C17.078 38.0049 17.2082 38.9891 17.4105 39.9467L19.3456 39.4273C19.1839 38.6371 19.0769 37.8268 19.029 37.0007ZM54.5895 32.0533L52.6544 32.5727C52.8162 33.3633 52.9232 34.1739 52.9711 35.0003L54.9742 35.0009C54.9221 33.9957 54.7919 33.0112 54.5895 32.0533ZM17.4105 32.0533C17.2081 33.0112 17.0779 33.9957 17.0258 35.0009L19.0289 35.0003C19.0768 34.1739 19.1838 33.3633 19.3456 32.5727L17.4105 32.0533ZM52.9351 27.3771L51.1999 28.3784C51.5645 29.1041 51.8787 29.8596 52.1378 30.6401L54.0731 30.1215C53.7644 29.1717 53.3829 28.2547 52.9351 27.3771ZM19.0649 27.3771C18.6171 28.2547 18.2356 29.1717 17.9269 30.1215L19.8625 30.6391C20.1216 29.8589 20.4356 29.1038 20.8001 28.3784L19.0649 27.3771ZM21.8768 23.2901C21.2144 24.0257 20.6086 24.8134 20.0663 25.6461L21.8008 26.6487C22.2518 25.9653 22.7507 25.3165 23.2928 24.7069L21.8768 23.2901ZM50.1232 23.2901L48.7072 24.7069C49.249 25.3162 49.7478 25.9647 50.1985 26.6477L51.9337 25.6461C51.3914 24.8134 50.7856 24.0257 50.1232 23.2901ZM25.6461 20.0663C24.8137 20.6083 24.0264 21.2138 23.2911 21.8759L24.7069 23.2928C25.3165 22.7507 25.9653 22.2518 26.6487 21.8008L25.6461 20.0663ZM46.3539 20.0663L45.3513 21.8008C46.0347 22.2518 46.6835 22.7507 47.2931 23.2928L48.7099 21.8768C47.9743 21.2144 47.1866 20.6086 46.3539 20.0663ZM35.3054 21.0158L35.245 21.018L35.216 21.02L35.1873 21.0216C35.1355 21.0244 35.0838 21.0274 35.0322 21.0307L35.186 21.022L35.216 21.02L35.24 21.019L35.186 21.022L34.8011 21.0472C34.3525 21.0827 33.9095 21.1379 33.4729 21.212L33.051 21.29L32.616 21.3833C32.4584 21.4196 32.3018 21.4584 32.1462 21.4997L32.142 21.5L32.1209 21.5064C32.1125 21.5087 32.104 21.5109 32.0955 21.5132L31.803 21.595L31.755 21.609L31.77 21.604L31.803 21.595L31.9289 21.559L31.8275 21.588L31.77 21.604L31.743 21.612L31.7129 21.6216L31.728 21.616L31.743 21.612L31.755 21.609L31.728 21.616L31.4349 21.7073C31.3426 21.7368 31.2506 21.7671 31.1591 21.7983L30.9211 21.8817C30.3835 22.0751 29.8601 22.2984 29.3529 22.5495L28.9932 22.7337L28.8671 22.8012C28.4657 23.0186 28.0751 23.2539 27.6967 23.5059C27.1516 23.8688 26.6311 24.2669 26.1389 24.6967L26.1238 24.7099L25.8346 24.9697L25.721 25.0756L25.3933 25.3934L25.0752 25.7214C24.951 25.8533 24.8292 25.9875 24.7099 26.1238L24.6967 26.1389C24.2711 26.6263 23.8766 27.1414 23.5162 27.6812L23.283 28.0415C23.2656 28.0693 23.2482 28.0971 23.231 28.125C22.98 28.5312 22.748 28.9499 22.536 29.3802L22.4513 29.5551C22.2398 29.9988 22.0495 30.4546 21.8817 30.9211L21.7986 31.1581L21.6675 31.5615C21.6602 31.5851 21.653 31.6087 21.6458 31.6322L21.622 31.712L21.531 32.029L21.524 32.053L21.508 32.111L21.5087 32.1125L21.5159 32.0857C21.4334 32.3917 21.3603 32.7016 21.297 33.015C21.1662 33.663 21.0772 34.3255 21.0328 35.0002C21.0216 35.1698 21.0132 35.3413 21.0077 35.5135C21.0026 35.675 21 35.8372 21 36C21 36.1618 21.0026 36.323 21.0076 36.4836C21.0127 36.6446 21.0204 36.8051 21.0305 36.9649C21.063 37.4768 21.1212 37.9818 21.2038 38.4785L21.29 38.95L21.2945 38.9725L21.2819 38.9091C21.3432 39.2208 21.4141 39.529 21.4943 39.8334L21.6216 40.2872L21.625 40.3L21.6443 40.3628L21.664 40.428L21.645 40.364L21.685 40.492L21.708 40.564L21.8177 40.8976C22.0276 41.5054 22.2754 42.0954 22.5584 42.665L22.7321 43.0038C22.7549 43.0469 22.7779 43.09 22.8012 43.1329C23.0187 43.5345 23.2539 43.9249 23.5059 44.3033C23.8688 44.8484 24.2669 45.3689 24.6967 45.8611L24.7099 45.8762L24.9817 46.1784C25.0129 46.2121 25.0441 46.2456 25.0756 46.279L25.3934 46.6067L25.7214 46.9248L25.834 47.03L25.867 47.059L25.858 47.052L25.834 47.03L25.8216 47.0183L25.858 47.052L25.888 47.079L25.9015 47.0916L25.977 47.159L25.902 47.091L25.888 47.079L25.867 47.059L25.902 47.091L26.1746 47.3344C26.5327 47.6451 26.9056 47.939 27.2921 48.2151L27.661 48.47L28.0516 48.7233C28.3228 48.8931 28.5999 49.0545 28.8824 49.2071L28.932 49.233H28.931L28.9732 49.2557L29.02 49.279L28.996 49.267L29.1265 49.336C29.2082 49.3782 29.2905 49.4197 29.3731 49.4605L29.02 49.279L29.4463 49.4964C29.8254 49.6808 30.2134 49.8497 30.6095 50.0023L26.356 50L26.2421 49.9223C25.7069 49.5465 25.1943 49.1407 24.7069 48.7072L23.415 50L20.348 50.0008C17.0223 46.2854 15 41.3789 15 36C15 24.402 24.402 15 36 15C47.598 15 57 24.402 57 36C57 41.3789 54.9777 46.2854 51.652 50.0008L48.586 50L47.2931 48.7072C46.7712 49.1713 46.2205 49.6038 45.6441 50.0016L41.3947 50.0007C41.8282 49.8335 42.252 49.6468 42.665 49.4416L43.0038 49.2679C43.0469 49.2451 43.09 49.2221 43.1329 49.1988C43.4048 49.0515 43.6716 48.8962 43.933 48.733L43.9397 48.7288L43.947 48.723L43.972 48.707L44.3546 48.4598C44.9016 48.0924 45.423 47.6898 45.9157 47.2555L46.1784 47.0183C46.2121 46.9871 46.2456 46.9559 46.279 46.9244L46.6067 46.6066L46.9248 46.2786C47.049 46.1467 47.1708 46.0125 47.2901 45.8762L47.3033 45.8611C47.6256 45.492 47.9301 45.1069 48.2155 44.7072L48.493 44.303L48.7207 43.9526C48.8884 43.685 49.0478 43.4116 49.1988 43.133L49.2335 43.0684L49.261 43.015L49.232 43.068L49.268 43.002V43.001L49.276 42.985L49.3223 42.9L49.405 42.735L49.32 42.899L49.4831 42.5808C49.7614 42.0117 50.0047 41.4225 50.2102 40.8158L50.3355 40.4285C50.3487 40.3861 50.3616 40.3435 50.3743 40.3009C50.5042 39.8663 50.6149 39.423 50.7055 38.9725C50.8371 38.3177 50.9261 37.6474 50.9695 36.9648L50.9672 36.9998C50.9785 36.8285 50.9869 36.6563 50.9924 36.4835C50.9974 36.323 51 36.1618 51 36C51 35.8372 50.9974 35.675 50.9923 35.5134C50.9868 35.3416 50.9784 35.1705 50.9672 35.0002C50.9339 34.4941 50.8755 33.995 50.7933 33.5039L50.709 33.049L50.6496 32.762C50.6015 32.5433 50.5486 32.3264 50.4911 32.1114L50.4361 31.9116L50.43 31.892L50.474 32.053L50.387 31.743L50.3784 31.7129L50.343 31.596L50.353 31.632L50.2927 31.4349C50.2632 31.3426 50.2329 31.2506 50.2017 31.1591L50.1183 30.9211C49.9505 30.4546 49.7602 29.9988 49.5487 29.5551L49.464 29.3802L49.2552 28.9722C49.2392 28.9421 49.2231 28.9121 49.2069 28.8821C48.9843 28.4699 48.7427 28.069 48.4836 27.6808C48.1234 27.1414 47.7289 26.6263 47.3033 26.1389L47.2901 26.1238L47.0183 25.8216C46.9871 25.7879 46.9559 25.7544 46.9244 25.721C46.716 25.4995 46.5005 25.284 46.2786 25.0752C46.2413 25.0401 46.2034 25.0048 46.1654 24.9697L46.221 25.022L46.0791 24.8907C46.012 24.8298 45.9444 24.7696 45.8762 24.7099L45.8611 24.6967C45.492 24.3744 45.1069 24.0699 44.7072 23.7845L44.316 23.515L43.9526 23.2793C43.685 23.1116 43.4116 22.9522 43.133 22.8012L42.989 22.725L42.536 22.4951C42.0636 22.266 41.5774 22.061 41.0789 21.8817L40.8409 21.7983L40.4385 21.6675L40.2869 21.6215L39.9049 21.5133C40.033 21.5478 40.1605 21.5839 40.2869 21.6215L40.169 21.587L40.0709 21.559L39.9049 21.5133C39.5979 21.4308 39.287 21.3577 38.9725 21.2945C38.2202 21.1433 37.4476 21.0483 36.6592 21.0142L36.5715 21.0107L36.525 21.009L36.491 21.007C36.4292 21.0059 36.3716 21.0044 36.3138 21.0032L36 21L35.7562 21.0019L35.5134 21.0077L35.3429 21.0141L35.3673 21.0131C35.4159 21.0111 35.4646 21.0093 35.5134 21.0077L35.399 21.011L35.3673 21.0131C35.3466 21.014 35.326 21.0149 35.3054 21.0158ZM41.8785 17.9269L41.3599 19.8622C42.1401 20.1212 42.8952 20.4352 43.6206 20.7996L44.6229 19.0649C43.7453 18.6171 42.8283 18.2356 41.8785 17.9269ZM30.1215 17.9269C29.172 18.2355 28.2554 18.6168 27.3781 19.0644L28.3794 20.7996C29.1048 20.4352 29.8599 20.1212 30.6401 19.8622L30.1215 17.9269ZM34.9999 17.0259C33.9951 17.078 33.0109 17.2082 32.0533 17.4105L32.5727 19.3456C33.3629 19.1839 34.1732 19.0769 34.9993 19.029L34.9999 17.0259ZM36.9991 17.0258L36.9997 19.0289C37.8261 19.0768 38.6367 19.1838 39.4273 19.3456L39.9467 17.4105C38.9888 17.2081 38.0043 17.0779 36.9991 17.0258Z" fill="#202020"/>
<path fill-rule="evenodd" clip-rule="evenodd" d="M36.5 28C39.5376 28 42 30.4624 42 33.5C42 35.5732 40.8529 37.3785 39.1588 38.3158L42 44H38.5L36 39H33V44H30V28H36.5ZM36.5 31H33V36H36.5C37.8807 36 39 34.8807 39 33.5C39 32.1193 37.8807 31 36.5 31Z" fill="#202020"/>
</svg>
