<svg width="72" height="72" viewBox="0 0 72 72" fill="none" xmlns="http://www.w3.org/2000/svg">
<path d="M21.9735 35.7387C22.3178 35.3957 22.3178 34.8396 21.9734 34.4966C21.6291 34.1537 21.0708 34.1537 20.7265 34.4967C20.3822 34.8396 20.3822 35.3957 20.7265 35.7387C21.0709 36.0816 21.6291 36.0816 21.9735 35.7387Z" fill="black"/>
<path d="M51.2967 35.0982C51.641 34.7552 51.641 34.1991 51.2967 33.8561C50.9523 33.5132 50.3941 33.5132 50.0497 33.8561C49.7054 34.1991 49.7054 34.7552 50.0498 35.0982C50.3941 35.4411 50.9524 35.4411 51.2967 35.0982Z" fill="black"/>
<path d="M8.25816 27.0449C8.09286 27.2096 8 27.4329 8 27.6658C8 27.8987 8.09286 28.122 8.25816 28.2867L10.1274 30.1486L20.7258 40.7051C20.8075 40.7873 20.9047 40.8525 21.0119 40.8971C21.119 40.9416 21.234 40.9646 21.3501 40.9646C21.4662 40.9646 21.5812 40.9416 21.6883 40.8971C21.7955 40.8525 21.8927 40.7873 21.9744 40.7051L22.5986 40.0833L23.953 41.4322C23.7177 41.9243 23.641 42.4768 23.7335 43.0139C23.826 43.5511 24.0832 44.0465 24.4696 44.4323L23.8454 45.0541C23.3499 45.5484 23.0716 46.2184 23.0716 46.9169C23.0716 47.6154 23.3499 48.2853 23.8454 48.7796C24.3145 49.2469 24.9334 49.5086 25.593 49.5402C25.6265 50.1673 25.8593 50.7855 26.3389 51.2633C26.8221 51.7446 27.4499 51.9782 28.083 52.0098C28.113 52.6404 28.3493 53.2657 28.8325 53.747C29.3033 54.216 29.9205 54.4777 30.58 54.5075C30.6135 55.1346 30.8463 55.7529 31.326 56.2307C31.8409 56.7453 32.5198 57 33.197 57C33.8742 57 34.5514 56.7436 35.068 56.2307L35.6923 55.6089C36.1914 56.1059 36.8562 56.38 37.5633 56.38C37.9109 56.3811 38.2553 56.3135 38.5764 56.1811C38.8976 56.0488 39.1892 55.8543 39.4344 55.6089C39.9176 55.1276 40.1539 54.5023 40.1838 53.8717C40.8187 53.8418 41.4465 53.6065 41.9297 53.1252C42.4076 52.6474 42.6403 52.0274 42.6739 51.4021C43.3334 51.3722 43.9524 51.1105 44.4214 50.6415C44.9046 50.1602 45.1409 49.5349 45.1709 48.9044C45.8257 48.8824 46.4483 48.6159 46.915 48.1578C47.4104 47.6635 47.6887 46.9936 47.6887 46.2951C47.6887 45.5966 47.4104 44.9266 46.915 44.4323L47.5392 43.8105C48.3522 43.0008 48.525 41.7906 48.0559 40.8105L49.4103 39.4615L50.0345 40.0833C50.1162 40.1655 50.2134 40.2307 50.3206 40.2753C50.4277 40.3198 50.5427 40.3428 50.6588 40.3428C50.7749 40.3428 50.8899 40.3198 50.997 40.2753C51.1042 40.2307 51.2014 40.1655 51.2831 40.0833L61.8815 29.5268L61.885 29.5215L63.7525 27.6614C63.9131 27.4957 64.002 27.2739 64 27.0436C63.998 26.8134 63.9052 26.5931 63.7417 26.4302C63.5783 26.2674 63.3571 26.1751 63.1259 26.1731C62.8947 26.1711 62.672 26.2596 62.5057 26.4196L55.6476 33.2523L45.6664 23.3176L50.6535 18.3502L52.5228 16.4884C52.6834 16.3227 52.7723 16.1009 52.7703 15.8706C52.7682 15.6403 52.6755 15.4201 52.512 15.2572C52.3486 15.0944 52.1274 15.002 51.8962 15C51.665 14.998 51.4423 15.0866 51.276 15.2465L43.7936 22.6976L43.7919 22.6993L38.8048 27.6667C38.7227 27.7482 38.6576 27.8452 38.6131 27.9519C38.5687 28.0586 38.5458 28.1729 38.5458 28.2885C38.5458 28.404 38.5687 28.5184 38.6131 28.6251C38.6576 28.7318 38.7227 28.8287 38.8048 28.9103L40.0516 30.1521L39.1187 31.0813L36.2919 30.6703C36.1559 30.6533 36.0179 30.6669 35.8878 30.71C35.7578 30.7532 35.6392 30.8248 35.5407 30.9197L34.4403 32.0157L32.5692 30.1538L33.1935 29.532C33.2756 29.4505 33.3407 29.3536 33.3852 29.2469C33.4296 29.1402 33.4525 29.0258 33.4525 28.9103C33.4525 28.7947 33.4296 28.6803 33.3852 28.5736C33.3407 28.467 33.2756 28.37 33.1935 28.2885L28.2064 23.3211L28.2047 23.3194L20.7276 15.8666C20.5613 15.7066 20.3386 15.6181 20.1074 15.6201C19.8762 15.6221 19.655 15.7144 19.4916 15.8773C19.3281 16.0401 19.2353 16.2604 19.2333 16.4907C19.2313 16.7209 19.3202 16.9428 19.4808 17.1084L21.3501 18.9703L26.3372 23.9376L16.363 33.8741L9.50493 27.0431C9.33911 26.8791 9.11484 26.7872 8.88118 26.7876C8.64752 26.7879 8.4235 26.8804 8.25816 27.0449V27.0449ZM26.3389 47.5378C26.1714 47.6983 25.948 47.7879 25.7155 47.7879C25.4831 47.7879 25.2597 47.6983 25.0922 47.5378C25.01 47.4562 24.9449 47.3593 24.9004 47.2526C24.856 47.1459 24.8331 47.0315 24.8331 46.916C24.8331 46.8005 24.856 46.6861 24.9004 46.5794C24.9449 46.4727 25.01 46.3758 25.0922 46.2942L25.7164 45.6724L26.9632 46.9142L26.3389 47.5378V47.5378ZM28.8325 50.0215C28.6645 50.1811 28.4412 50.2702 28.2091 50.2702C27.9769 50.2702 27.7536 50.1811 27.5857 50.0215C27.5036 49.9399 27.4384 49.843 27.394 49.7363C27.3495 49.6296 27.3266 49.5152 27.3266 49.3997C27.3266 49.2842 27.3495 49.1698 27.394 49.0631C27.4384 48.9564 27.5036 48.8595 27.5857 48.7779L28.2099 48.1561L29.4567 49.3979L28.8325 50.0215V50.0215ZM31.326 52.5051C31.158 52.6648 30.9348 52.7539 30.7026 52.7539C30.4704 52.7539 30.2472 52.6648 30.0792 52.5051C29.9139 52.3405 29.8211 52.1171 29.8211 51.8842C29.8211 51.6514 29.9139 51.428 30.0792 51.2633L30.7035 50.6415L31.9502 51.8834L31.326 52.5051ZM33.8213 54.9888C33.655 55.1488 33.4323 55.2373 33.2011 55.2353C32.9699 55.2333 32.7487 55.141 32.5853 54.9781C32.4218 54.8153 32.329 54.595 32.327 54.3647C32.325 54.1345 32.4139 53.9126 32.5745 53.747L33.1988 53.1252L34.4455 54.367L33.8213 54.9888ZM44.4197 24.5612L54.3956 34.4976L50.6553 38.2231L50.0328 37.6031L41.3036 28.9103L41.3019 28.9085L40.6794 28.2885L44.4197 24.5612V24.5612ZM36.4788 32.4707L39.3039 32.8817C39.4399 32.901 39.5787 32.8886 39.7091 32.8453C39.8394 32.802 39.9579 32.7291 40.0551 32.6322L41.3019 31.3904L48.16 38.2214L46.2889 40.0833C46.2068 40.1648 46.1417 40.2618 46.0972 40.3685C46.0528 40.4752 46.0299 40.5895 46.0299 40.7051C46.0299 40.8206 46.0528 40.935 46.0972 41.0417C46.1417 41.1484 46.2068 41.2453 46.2889 41.3269C46.4539 41.4921 46.5465 41.7156 46.5465 41.9487C46.5465 42.1817 46.4539 42.4052 46.2889 42.5705L45.6664 43.1905L38.1753 35.7272C38.3329 35.5574 38.4163 35.3322 38.4072 35.1011C38.3981 34.87 38.2972 34.652 38.1268 34.495C37.9563 34.338 37.7302 34.2549 37.4982 34.264C37.2662 34.273 37.0473 34.3735 36.8897 34.5433L33.4845 37.9351C33.1223 38.2827 32.6524 38.4976 32.1517 38.5445C31.6509 38.5914 31.149 38.4676 30.7282 38.1933L36.4788 32.4707V32.4707ZM33.197 33.254L28.8325 37.6014C28.7503 37.6829 28.6852 37.7798 28.6407 37.8865C28.5963 37.9932 28.5734 38.1076 28.5734 38.2231C28.5734 38.3387 28.5963 38.4531 28.6407 38.5597C28.6852 38.6664 28.7503 38.7634 28.8325 38.8449L29.1675 39.1787C29.9099 39.9182 30.8975 40.3257 31.9485 40.3257C32.4654 40.3269 32.9774 40.2262 33.455 40.0294C33.9326 39.8325 34.3664 39.5434 34.7312 39.1787L36.9373 36.9813L45.0422 45.0559L45.6647 45.6759C45.8253 45.8416 45.9142 46.0634 45.9122 46.2937C45.9101 46.524 45.8174 46.7442 45.6539 46.9071C45.4905 47.0699 45.2693 47.1623 45.0381 47.1643C44.8069 47.1663 44.5842 47.0777 44.4179 46.9178L41.9244 44.4341C41.7581 44.2741 41.5354 44.1856 41.3042 44.1876C41.073 44.1896 40.8518 44.282 40.6884 44.4448C40.5249 44.6076 40.4321 44.8279 40.4301 45.0582C40.4281 45.2884 40.517 45.5103 40.6776 45.6759L43.1711 48.1596C43.3364 48.3243 43.4293 48.5476 43.4293 48.7805C43.4293 49.0134 43.3364 49.2367 43.1711 49.4014C43.0036 49.5619 42.7802 49.6515 42.5478 49.6515C42.3153 49.6515 42.0919 49.5619 41.9244 49.4014L39.4291 46.9178C39.2628 46.7578 39.0401 46.6693 38.8089 46.6713C38.5777 46.6733 38.3565 46.7656 38.1931 46.9285C38.0296 47.0913 37.9368 47.3116 37.9348 47.5418C37.9328 47.7721 38.0217 47.994 38.1823 48.1596L40.6758 50.6433C40.8412 50.8082 40.934 51.0318 40.9338 51.2648C40.9336 51.4979 40.8405 51.7213 40.675 51.886C40.5094 52.0507 40.2849 52.1431 40.051 52.1429C39.817 52.1428 39.5926 52.05 39.4273 51.8851L36.9338 49.4014C36.7675 49.2415 36.5448 49.1529 36.3136 49.1549C36.0824 49.1569 35.8612 49.2493 35.6978 49.4121C35.5343 49.575 35.4416 49.7952 35.4395 50.0255C35.4375 50.2558 35.5264 50.4776 35.687 50.6433L38.1806 53.1269C38.3459 53.2916 38.4387 53.515 38.4387 53.7479C38.4387 53.9807 38.3459 54.2041 38.1806 54.3688C38.0126 54.5284 37.7893 54.6175 37.5572 54.6175C37.325 54.6175 37.1017 54.5284 36.9338 54.3688L36.3113 53.7487L33.8178 51.2651L25.7129 43.194C25.5479 43.0288 25.4553 42.8052 25.4553 42.5722C25.4553 42.3392 25.5479 42.1156 25.7129 41.9504C25.795 41.8688 25.8601 41.7719 25.9046 41.6652C25.949 41.5585 25.9719 41.4441 25.9719 41.3286C25.9719 41.2131 25.949 41.0987 25.9046 40.992C25.8601 40.8853 25.795 40.7884 25.7129 40.7068L23.8419 38.8449L31.3242 31.3939L33.197 33.254V33.254ZM31.3277 28.9085L30.7052 29.5285L30.7035 29.5303L21.9744 38.2231L21.3519 38.8432L17.6098 35.1177L27.5857 25.1812L31.3277 28.9085V28.9085Z" fill="black"/>
</svg>
