<svg width="72" height="72" viewBox="0 0 72 72" fill="none" xmlns="http://www.w3.org/2000/svg">
<path d="M35.3513 47.8034C37.5007 47.8034 39.2432 46.067 39.2432 43.9249C39.2432 41.7829 37.5007 40.0464 35.3513 40.0464C33.2019 40.0464 31.4594 41.7829 31.4594 43.9249C31.4594 46.067 33.2019 47.8034 35.3513 47.8034Z" stroke="#202020" stroke-width="2" stroke-miterlimit="10" stroke-linecap="square"/>
<path d="M31.4595 30.9964C31.4595 27.5316 36.7655 23.8858 38.8671 21.7914C40.6574 20.0073 40.4887 16.995 38.2833 15.4953C36.973 14.6032 35.2217 14.5644 33.8725 15.4048C32.7049 16.1417 32.0692 17.2794 31.9395 18.4688C31.9395 19.9685 31.8098 20.6666 30.3049 20.6666H26.413C24.9082 20.6666 25.1028 19.9814 25.1028 18.4817C25.2195 15.4048 26.6465 12.3795 29.3579 10.2722C33.0163 7.44089 38.2184 7.2211 42.0714 9.80678C47.9741 13.7758 48.5838 21.9724 43.706 26.6266C42.1752 28.0746 37.946 30.5181 37.946 32.3151V34.9008C37.946 35.6119 37.5179 36.1937 36.8044 36.1937H32.9125C32.199 36.1937 31.4595 35.6119 31.4595 34.9008V31.0223V30.9964Z" stroke="#202020" stroke-width="2" stroke-miterlimit="10" stroke-linecap="square"/>
<path d="M50.9189 25.8252H54.8108C57.6778 25.8252 60 28.1394 60 30.9966V49.0963C60 51.9535 57.6778 54.2677 54.8108 54.2677H34.9622L25.907 63.602C25.1027 64.4424 23.6757 63.8606 23.6757 62.71V54.2677H17.1892C14.3222 54.2677 12 51.9535 12 49.0963V30.9966C12 28.1394 14.3222 25.8252 17.1892 25.8252H21.0811" stroke="#202020" stroke-width="2" stroke-linecap="square"/>
</svg>
