<svg width="72" height="72" viewBox="0 0 72 72" fill="none" xmlns="http://www.w3.org/2000/svg">
<circle cx="36" cy="36" r="31" stroke="#202020" stroke-width="2"/>
<path d="M67 36C67 42.2421 63.6289 47.9695 58.0274 52.1706C52.4257 56.3719 44.6411 59 36 59C27.3589 59 19.5743 56.3719 13.9726 52.1706C8.37115 47.9695 5 42.2421 5 36C5 29.7579 8.37115 24.0305 13.9726 19.8294C19.5743 15.6281 27.3589 13 36 13C44.6411 13 52.4257 15.6281 58.0274 19.8294C63.6289 24.0305 67 29.7579 67 36Z" stroke="#202020" stroke-width="2"/>
<path d="M67 36C67 36.5327 66.544 37.3266 64.9765 38.2531C63.4759 39.14 61.238 39.9734 58.3849 40.6867C52.6941 42.1094 44.7794 43 36 43C27.2206 43 19.3059 42.1094 13.6151 40.6867C10.762 39.9734 8.52412 39.14 7.02355 38.2531C5.45603 37.3266 5 36.5327 5 36C5 35.4673 5.45603 34.6734 7.02355 33.7469C8.52412 32.86 10.762 32.0266 13.6151 31.3133C19.3059 29.8906 27.2206 29 36 29C44.7794 29 52.6941 29.8906 58.3849 31.3133C61.238 32.0266 63.4759 32.86 64.9765 33.7469C66.544 34.6734 67 35.4673 67 36Z" stroke="#202020" stroke-width="2"/>
<path d="M59 36C59 44.6411 56.3719 52.4257 52.1706 58.0274C47.9695 63.6289 42.2421 67 36 67C29.7579 67 24.0305 63.6289 19.8294 58.0274C15.6281 52.4257 13 44.6411 13 36C13 27.3589 15.6281 19.5743 19.8294 13.9726C24.0305 8.37115 29.7579 5 36 5C42.2421 5 47.9695 8.37115 52.1706 13.9726C56.3719 19.5743 59 27.3589 59 36Z" stroke="#202020" stroke-width="2"/>
<path d="M43 36C43 44.7794 42.1094 52.6941 40.6867 58.3849C39.9734 61.238 39.14 63.4759 38.2531 64.9765C37.3266 66.544 36.5327 67 36 67C35.4673 67 34.6734 66.544 33.7469 64.9765C32.86 63.4759 32.0266 61.238 31.3133 58.3849C29.8906 52.6941 29 44.7794 29 36C29 27.2206 29.8906 19.3059 31.3133 13.6151C32.0266 10.762 32.86 8.52412 33.7469 7.02355C34.6734 5.45603 35.4673 5 36 5C36.5327 5 37.3266 5.45603 38.2531 7.02355C39.14 8.52412 39.9734 10.762 40.6867 13.6151C42.1094 19.3059 43 27.2206 43 36Z" stroke="#202020" stroke-width="2"/>
</svg>
