<svg id="black_icons" data-name="black icons" xmlns="http://www.w3.org/2000/svg" viewBox="0 0 400 400"><path d="M129.82,284.35a32.83,32.83,0,1,0,32.82,32.83A32.86,32.86,0,0,0,129.82,284.35Zm8.86,32.83a8.86,8.86,0,1,1-8.86-8.86A8.87,8.87,0,0,1,138.68,317.18Z"/><path d="M135.4,100.17v24L300.14,124c-.88,7-2,51-8.08,73.77a208.57,208.57,0,0,1-17.72,44.65H99.08L99,50.78H25.59v24H75.12V266.42H285.83l.46-.58c.6-.73,14.81-18.48,27-59.1s12.54-104.57,12.56-105l.1-1.65Z"/><path d="M243.7,284.35a32.83,32.83,0,1,0,32.81,32.83A32.87,32.87,0,0,0,243.7,284.35Zm8.85,32.83a8.86,8.86,0,1,1-8.85-8.86A8.86,8.86,0,0,1,252.55,317.18Z"/></svg>