<svg width="72" height="72" viewBox="0 0 72 72" fill="none" xmlns="http://www.w3.org/2000/svg">
<path fill-rule="evenodd" clip-rule="evenodd" d="M56 6C56 2.68629 53.3137 0 50 0H22C18.6863 0 16 2.68629 16 6V66C16 69.3137 18.6863 72 22 72H50C53.3137 72 56 69.3137 56 66V6ZM22 2H50L50.1996 2.0049C52.316 2.10892 54 3.8578 54 6V66L53.9951 66.1996C53.8911 68.316 52.1422 70 50 70H22L21.8004 69.9951C19.684 69.8911 18 68.1422 18 66V6L18.0049 5.80036C18.1089 3.68397 19.8578 2 22 2Z" fill="#202020"/>
<path d="M37 66C37.5523 66 38 66.4477 38 67C38 67.5523 37.5523 68 37 68H35C34.4477 68 34 67.5523 34 67C34 66.4477 34.4477 66 35 66H37Z" fill="#202020"/>
<path d="M44 2C44 3.10457 43.1046 4 42 4H30C28.8954 4 28 3.10457 28 2H44Z" fill="#202020"/>
</svg>
