<svg width="72" height="72" viewBox="0 0 72 72" fill="none" xmlns="http://www.w3.org/2000/svg">
<path d="M44 8C47.3137 8 50 10.6863 50 14V58C50 61.3137 47.3137 64 44 64H28C24.6863 64 22 61.3137 22 58V14C22 10.6863 24.6863 8 28 8H44ZM44 10H28C25.8578 10 24.1089 11.684 24.0049 13.8004L24 14V58C24 60.1422 25.684 61.8911 27.8004 61.9951L28 62H44C46.1422 62 47.8911 60.316 47.9951 58.1996L48 58V14C48 11.8578 46.316 10.1089 44.1996 10.0049L44 10Z" fill="#202020"/>
<path d="M43 52H29C27.3431 52 26 53.3431 26 55V57C26 58.6569 27.3431 60 29 60H43C44.6569 60 46 58.6569 46 57V55C46 53.3431 44.6569 52 43 52Z" fill="#202020"/>
<path d="M43 42H29C27.3431 42 26 43.3431 26 45V47C26 48.6569 27.3431 50 29 50H43C44.6569 50 46 48.6569 46 47V45C46 43.3431 44.6569 42 43 42Z" fill="#202020"/>
<path d="M43 32H29C27.3431 32 26 33.3431 26 35V37C26 38.6569 27.3431 40 29 40H43C44.6569 40 46 38.6569 46 37V35C46 33.3431 44.6569 32 43 32ZM43 34C43.5523 34 44 34.4477 44 35V37C44 37.5523 43.5523 38 43 38H29C28.4477 38 28 37.5523 28 37V35C28 34.4477 28.4477 34 29 34H43Z" fill="#202020"/>
<path d="M43 22H29C27.3431 22 26 23.3431 26 25V27C26 28.6569 27.3431 30 29 30H43C44.6569 30 46 28.6569 46 27V25C46 23.3431 44.6569 22 43 22ZM43 24C43.5523 24 44 24.4477 44 25V27C44 27.5523 43.5523 28 43 28H29C28.4477 28 28 27.5523 28 27V25C28 24.4477 28.4477 24 29 24H43Z" fill="#202020"/>
<path d="M43 12H29C27.3431 12 26 13.3431 26 15V17C26 18.6569 27.3431 20 29 20H43C44.6569 20 46 18.6569 46 17V15C46 13.3431 44.6569 12 43 12ZM43 14C43.5523 14 44 14.4477 44 15V17C44 17.5523 43.5523 18 43 18H29C28.4477 18 28 17.5523 28 17V15C28 14.4477 28.4477 14 29 14H43Z" fill="#202020"/>
</svg>
