<svg width="72" height="72" viewBox="0 0 72 72" fill="none" xmlns="http://www.w3.org/2000/svg">
<path d="M47.8516 4C51.779 4 54.9627 7.07005 54.9627 10.8571V61.1429C54.9627 64.93 51.779 68 47.8516 68H24.1479C20.2206 68 17.0368 64.93 17.0368 61.1429V10.8571C17.0368 7.07005 20.2206 4 24.1479 4H47.8516ZM47.8516 6.28571H24.1479C21.609 6.28571 19.5363 8.21025 19.413 10.629L19.4072 10.8571V61.1429C19.4072 63.5911 21.403 65.5898 23.9113 65.7087L24.1479 65.7143H47.8516C50.3905 65.7143 52.4633 63.7898 52.5866 61.371L52.5924 61.1429V10.8571C52.5924 8.40892 50.5965 6.4102 48.0882 6.29131L47.8516 6.28571Z" fill="#202020"/>
<path d="M37.1849 62.2856C37.8394 62.2856 38.3701 62.7973 38.3701 63.4285C38.3701 64.0597 37.8394 64.5714 37.1849 64.5714H34.8145C34.16 64.5714 33.6293 64.0597 33.6293 63.4285C33.6293 62.7973 34.16 62.2856 34.8145 62.2856H37.1849Z" fill="#202020"/>
<path d="M45.4811 6.28589C45.4811 7.54825 44.4199 8.5716 43.1108 8.5716H28.8886C27.5794 8.5716 26.5182 7.54825 26.5182 6.28589H45.4811Z" fill="#202020"/>
<path d="M35.9998 58.857C49.091 58.857 59.7035 48.6235 59.7035 35.9998C59.7035 23.3762 49.091 13.1427 35.9998 13.1427C22.9087 13.1427 12.2961 23.3762 12.2961 35.9998C12.2961 48.6235 22.9087 58.857 35.9998 58.857Z" fill="white" stroke="#202020" stroke-width="2"/>
<path d="M35.9998 14.1805V57.8191" stroke="#202020" stroke-width="2" stroke-linecap="square"/>
<path d="M58.6274 36.0002H13.3726" stroke="#202020" stroke-width="2" stroke-linecap="square"/>
<path d="M41.8562 14.9242L30.1434 57.0758" stroke="#202020" stroke-width="2" stroke-linecap="square"/>
<path d="M57.8559 41.6472L14.1431 30.3527" stroke="#202020" stroke-width="2" stroke-linecap="square"/>
<path d="M47.3135 17.1041L24.6861 54.8963" stroke="#202020" stroke-width="2" stroke-linecap="square"/>
<path d="M55.5958 46.9098L16.404 25.0905" stroke="#202020" stroke-width="2" stroke-linecap="square"/>
<path d="M52.0001 20.5714L20.0001 51.4286" stroke="#202020" stroke-width="2" stroke-linecap="square"/>
<path d="M51.9999 51.4286L19.9999 20.5714" stroke="#202020" stroke-width="2" stroke-linecap="square"/>
<path d="M55.5955 25.0905L16.4036 46.9098" stroke="#202020" stroke-width="2" stroke-linecap="square"/>
<path d="M47.3135 54.8963L24.6861 17.1041" stroke="#202020" stroke-width="2" stroke-linecap="square"/>
<path d="M57.8563 30.3529L14.1434 41.6474" stroke="#202020" stroke-width="2" stroke-linecap="square"/>
<path d="M41.8562 57.0758L30.1434 14.9242" stroke="#202020" stroke-width="2" stroke-linecap="square"/>
<path d="M35.9998 54.2859C46.4727 54.2859 54.9627 46.0991 54.9627 36.0002C54.9627 25.9013 46.4727 17.7145 35.9998 17.7145C25.5268 17.7145 17.0368 25.9013 17.0368 36.0002C17.0368 46.0991 25.5268 54.2859 35.9998 54.2859Z" fill="white" stroke="#202020" stroke-width="2"/>
<path fill-rule="evenodd" clip-rule="evenodd" d="M36.5924 30.2858C38.8834 30.2858 40.7406 32.0766 40.7406 34.2858C40.7406 35.7604 39.9131 37.0486 38.6814 37.7423L40.7406 41.7143H37.7776L35.9998 38.2858H33.6295V41.7143H31.2591V30.2858H36.5924ZM36.5924 32.5715H33.6295V36.0001H36.5924C37.5743 36.0001 38.3702 35.2325 38.3702 34.2858C38.3702 33.339 37.5743 32.5715 36.5924 32.5715Z" fill="#202020"/>
</svg>
